<svg xmlns="http://www.w3.org/2000/svg" viewBox="0 0 256 256"><path fill="#B71C1C" d="M128 247.322C62.1 247.322 8.678 193.9 8.678 128 8.678 194.274 62.1 248 128 248s119.322-53.726 119.322-120c0 65.9-53.422 119.322-119.322 119.322z" opacity=".2"/><path fill="#FFF" d="M128 8.678C193.9 8.678 247.322 62.1 247.322 128 247.322 61.726 193.9 8 128 8S8.678 61.726 8.678 128C8.678 62.1 62.1 8.678 128 8.678z" opacity=".2"/><circle cx="128" cy="128" r="119.322" fill="#F44336"/><path fill="#0572B9" d="M201.536 127.228c0 41.203-33.373 74.576-74.576 74.576s-74.576-33.373-74.576-74.576 33.373-74.576 74.576-74.576 74.576 33.373 74.576 74.576z"/><path fill="#2196F3" stroke="#FFF" stroke-width="7" d="M223.909 127.228c0 53.546-43.403 96.949-96.949 96.949s-96.949-43.403-96.949-96.949 43.403-96.949 96.949-96.949 96.949 43.403 96.949 96.949z"/><linearGradient id="a" x1="68.365" x2="188.185" y1="171.708" y2="51.888" gradientTransform="matrix(1 0 0 -1 4 251)" gradientUnits="userSpaceOnUse"><stop offset="0" stop-color="#0d47a1" stop-opacity=".2"/><stop offset="1" stop-color="#0d47a1" stop-opacity="0"/></linearGradient><path fill="url(#a)" d="M126.96 224.177c53.545 0 96.949-43.403 96.949-96.949 0-1.24-.048-2.468-.094-3.697h-.142l.139-.102c-.01-.264-.007-.531-.02-.794l-18.622-19.726h-21.566L126.96 45.94l-18.52 56.968H48.749l45.138 45.056-15.117 46.921 27.997 27.171c.168.036.332.081.5.115l.61.117c.361.072.728.127 1.091.195l.042-.031-.01.037a97.322 97.322 0 0 0 17.96 1.688z"/><path fill="none" stroke="#1A237E" d="m126.96 45.94 18.52 56.968h59.691l.218-.16H145.48l-18.52-57.486-18.52 57.486H48.531l.218.16h59.691z" opacity=".2"/><path fill="#FFF" d="m175.15 194.885-18.235-56.6.042-.031-.042-.13 24.231-17.603 24.025-17.613H145.48L126.96 45.94l-18.52 56.968H48.749l24.025 17.613 24.231 17.603-.042.13.042.031-18.234 56.6 48.189-35.009z"/></svg>