<svg xmlns="http://www.w3.org/2000/svg" viewBox="0 0 256 256"><path fill="#827717" d="M128 247.322C62.1 247.322 8.678 193.9 8.678 128 8.678 194.274 62.1 248 128 248s119.322-53.726 119.322-120c0 65.9-53.422 119.322-119.322 119.322z" opacity=".2"/><path fill="#FFF" d="M128 8.678C193.9 8.678 247.322 62.1 247.322 128 247.322 61.726 193.9 8 128 8S8.678 61.726 8.678 128C8.678 62.1 62.1 8.678 128 8.678z" opacity=".2"/><circle cx="128" cy="128" r="119.322" fill="#FFEB3B"/><linearGradient id="a" x1="77.65" x2="211.056" y1="80.276" y2="213.681" gradientUnits="userSpaceOnUse"><stop offset="0" stop-color="#212121" stop-opacity=".2"/><stop offset="1" stop-color="#212121" stop-opacity="0"/></linearGradient><path fill="url(#a)" d="M245.808 147.01c-.048-.047-35.369-35.38-35.734-35.734a42.221 42.221 0 0 0-1.079-1.079 42.221 42.221 0 0 0-1.079-1.079C195.1 95.76 173.064 90.373 164.839 88.017c3.413 4.377 5.243 9.765 5.151 14.688.007 4.218-1.422 8.114-4.495 10.749-.02-.498-28.062-28.613-28.103-29.523-3.191 5.601-4.042 7.268-5.247 9.608-1.405-.351-2.892-.434-4.195-.403 0 0 0 .011-.298.011l-.188.007-8.425-9.168c-.234 7.827-.413 19.607-4.948 26.726-.619.143-22.664-22.21-22.264-22.742-44.045 10.048-51.646 31.658-53.017 40.028a25.339 25.339 0 0 0-.304 2.843c.768 9.969 5.521 17.45 11.295 23.01.356.367 92.29 92.298 92.603 92.603 52.838-6.358 95.046-47.246 103.404-99.444z"/><path fill="#263238" d="M217.264 127.995c-3.536-28.699-42.565-37.644-53.07-40.781.223.263.434.533.646.804 11.34 3.248 48.955 12.246 52.424 39.977zM101.443 116.761c17.017 1.418 17.23-20.527 17.596-32.775l5.164 9.554s4.254-.922 7.941 0c1.205-2.34 2.056-4.006 5.247-9.608.638 14.11-.106 32.936 17.443 32.936 10.544 0 15.169-6.567 15.156-14.162-.141 7.546-4.789 13.991-15.156 13.991-17.549 0-16.805-19.115-17.443-33.442-3.191 5.688-4.042 7.38-5.247 9.755-3.687-.936-7.941 0-7.941 0l-5.164-9.701c-.366 12.437-.579 34.72-17.596 33.28-10.068-.852-14.847-6.631-15.025-13.781.013 7.216 4.776 13.099 15.025 13.953zM91.826 87.97c.19-.253.376-.506.576-.756-44.568 10.142-52.215 32.247-53.593 40.784 1.372-8.37 8.973-29.98 53.017-40.028z"/><path d="M217.496 131.131v-.261a34.162 34.162 0 0 0-.232-2.875c-3.469-27.731-41.083-36.729-52.424-39.977 3.413 4.377 5.243 9.765 5.151 14.688.013 7.595-4.611 14.162-15.156 14.162-17.549 0-16.805-18.825-17.443-32.936-3.191 5.601-4.042 7.268-5.247 9.608-3.687-.922-7.941 0-7.941 0l-5.164-9.554c-.366 12.248-.579 34.194-17.596 32.775-10.249-.854-15.012-6.738-15.025-13.953-.117-4.691 1.754-9.97 5.409-14.838-44.045 10.048-51.646 31.658-53.017 40.028a25.339 25.339 0 0 0-.304 2.843c1.858 24.118 27.026 33.708 33.597 36.645-2.898-5.513-4.164-9.914-4.201-13.262-.495-12.27 15.285-10.907 27.159.968 18.861-28.079 33.098 16.876 33.098 16.876s14.444-45.628 32.986-16.876c20.654-16.689 27.277-9.876 27.24-.827v.252c.019 4.459-1.548 9.48-3.855 12.583 32.378-15.213 32.962-32.55 32.965-36.069z"/></svg>